<svg width="1130" height="326" viewBox="0 0 1130 326" fill="none" xmlns="http://www.w3.org/2000/svg">
<path d="M1129.36 221.883V323.63H1101.35L1099.29 311.478C1090.64 320.952 1079.38 325.689 1065.51 325.689C1056.04 325.689 1047.59 323.492 1040.18 319.098C1032.9 314.567 1027.2 308.32 1023.08 300.356C1018.96 292.254 1016.9 283.055 1016.9 272.756C1016.9 262.458 1018.96 253.327 1023.08 245.363C1027.2 237.262 1032.9 231.014 1040.18 226.62C1047.59 222.089 1056.04 219.823 1065.51 219.823C1072.38 219.823 1078.69 221.059 1084.46 223.531C1090.23 225.865 1095.17 229.298 1099.29 233.829L1101.35 221.883H1129.36ZM1073.13 298.502C1080.27 298.502 1086.11 296.168 1090.64 291.499C1095.17 286.693 1097.44 280.446 1097.44 272.756C1097.44 265.067 1095.17 258.888 1090.64 254.219C1086.11 249.414 1080.27 247.011 1073.13 247.011C1065.99 247.011 1060.16 249.414 1055.63 254.219C1051.23 259.025 1049.03 265.204 1049.03 272.756C1049.03 280.308 1051.23 286.487 1055.63 291.293C1060.16 296.099 1065.99 298.502 1073.13 298.502Z" fill="black"/>
<path d="M988.224 219.618C992.892 219.618 997.561 220.511 1002.23 222.296C1006.9 223.943 1010.95 226.415 1014.38 229.71L1000.79 253.396C997.904 251.611 995.227 250.307 992.755 249.483C990.283 248.659 987.675 248.247 984.928 248.247C978.063 248.247 972.639 250.444 968.657 254.838C964.675 259.232 962.684 265.686 962.684 274.199V323.631H930.348V221.884H958.565L961.036 234.654C967.627 224.63 976.69 219.618 988.224 219.618Z" fill="black"/>
<path d="M915.965 319.717C908.001 323.699 899.007 325.69 888.984 325.69C877.862 325.69 869.074 322.601 862.62 316.422C856.167 310.106 852.94 300.013 852.94 286.145V247.63H835.639V221.884H852.94V196.55L885.07 193.049V221.884H910.404V247.63H885.07V286.145C885.07 290.264 886.1 293.354 888.16 295.413C890.219 297.336 893.034 298.297 896.604 298.297C900.586 298.297 904.5 297.336 908.344 295.413L915.965 319.717Z" fill="black"/>
<path d="M779.157 219.618C791.79 219.618 801.813 223.737 809.228 231.976C816.78 240.215 820.556 251.611 820.556 266.166V323.631H788.22V268.02C788.22 261.429 786.572 256.28 783.277 252.573C779.981 248.865 775.45 247.012 769.683 247.012C763.367 247.012 758.286 249.14 754.441 253.396C750.597 257.653 748.674 263.214 748.674 270.08V323.631H716.338V221.884H744.349L746.409 233.83C750.391 229.299 755.128 225.797 760.62 223.326C766.25 220.854 772.429 219.618 779.157 219.618Z" fill="black"/>
<path d="M692.088 221.883V323.63H664.077L662.017 311.478C653.366 320.952 642.107 325.689 628.239 325.689C618.764 325.689 610.32 323.492 602.905 319.098C595.627 314.567 589.929 308.32 585.81 300.356C581.691 292.254 579.631 283.055 579.631 272.756C579.631 262.458 581.691 253.327 585.81 245.363C589.929 237.262 595.627 231.014 602.905 226.62C610.32 222.089 618.764 219.823 628.239 219.823C635.104 219.823 641.42 221.059 647.187 223.531C652.954 225.865 657.898 229.298 662.017 233.829L664.077 221.883H692.088ZM635.859 298.502C642.999 298.502 648.835 296.168 653.366 291.499C657.898 286.693 660.163 280.446 660.163 272.756C660.163 265.067 657.898 258.888 653.366 254.219C648.835 249.414 642.999 247.011 635.859 247.011C628.719 247.011 622.884 249.414 618.352 254.219C613.958 259.025 611.761 265.204 611.761 272.756C611.761 280.308 613.958 286.487 618.352 291.293C622.884 296.099 628.719 298.502 635.859 298.502Z" fill="black"/>
<path d="M529.765 179.455H560.042V323.631H526.47V233.418L484.041 285.321H477.45L434.609 233.212V323.631H401.037V179.455H431.314L480.54 240.833L529.765 179.455Z" fill="black"/>
<path d="M798.279 40.1632C810.774 40.1632 820.661 44.3512 827.938 52.7271C835.353 61.103 839.06 72.4311 839.06 86.7113V144.176H806.724V88.565C806.724 81.9741 805.076 76.825 801.78 73.1176C798.622 69.4102 794.16 67.5566 788.393 67.5566C782.076 67.5566 776.927 69.6849 772.945 73.9415C769.101 78.1981 767.178 83.7591 767.178 90.6246V144.176H734.842V0H767.178V53.5509C775.005 44.6258 785.372 40.1632 798.279 40.1632Z" fill="black"/>
<path d="M678.699 146.441C667.302 146.441 657.347 144.313 648.834 140.056C640.458 135.662 633.936 129.483 629.268 121.519C624.736 113.555 622.471 104.218 622.471 93.508C622.471 82.9352 624.805 73.6667 629.474 65.7027C634.142 57.6015 640.664 51.3538 649.04 46.9599C657.416 42.4287 667.096 40.1631 678.081 40.1631C685.633 40.1631 692.842 41.5362 699.708 44.2824C706.573 46.8913 712.683 50.8046 718.039 56.0224L700.12 75.5891C694.353 70.234 687.556 67.5564 679.729 67.5564C672.314 67.5564 666.273 69.9594 661.604 74.7652C656.936 79.4338 654.601 85.6127 654.601 93.3021C654.601 100.991 656.867 107.239 661.398 112.045C666.067 116.713 672.177 119.048 679.729 119.048C688.105 119.048 695.245 116.096 701.149 110.191L719.48 129.552C708.084 140.811 694.49 146.441 678.699 146.441Z" fill="black"/>
<path d="M556.377 40.1631C567.499 40.1631 577.11 42.2914 585.212 46.548C593.313 50.6673 599.492 56.5716 603.749 64.261C608.142 71.8131 610.339 80.6695 610.339 90.8305C610.339 94.1259 609.996 98.1766 609.31 102.982H534.544C535.505 108.2 538.32 112.457 542.989 115.752C547.657 118.91 553.63 120.489 560.908 120.489C565.988 120.489 570.931 119.734 575.737 118.224C580.543 116.713 584.662 114.585 588.095 111.839L604.984 129.964C599.217 135.319 592.352 139.438 584.388 142.322C576.561 145.205 568.185 146.647 559.26 146.647C547.451 146.647 537.222 144.519 528.571 140.262C519.921 135.868 513.261 129.689 508.593 121.725C503.924 113.761 501.59 104.356 501.59 93.508C501.59 83.0725 503.855 73.804 508.387 65.7027C513.055 57.6015 519.509 51.3538 527.747 46.9599C535.986 42.4287 545.529 40.1631 556.377 40.1631ZM557.406 65.7027C550.953 65.7027 545.666 67.3505 541.547 70.6459C537.565 73.9414 535.299 78.5412 534.75 84.4456H579.651C579.239 78.5412 577.042 73.9414 573.06 70.6459C569.215 67.3505 563.997 65.7027 557.406 65.7027Z" fill="black"/>
<path d="M510.403 0V29.453H466.327V144.176H432.548V29.453H388.678V0H510.403Z" fill="black"/>
<path d="M198.139 172.024H354.811V324.745C354.811 324.745 287.562 299.412 244.854 255.599C203.223 212.891 198.139 172.024 198.139 172.024Z" fill="#E02100"/>
<path d="M190.528 0.101562L354.832 171.291L228.049 325.144C228.049 325.144 129.658 251.558 125.396 161.346C121.134 71.1345 190.528 0.101562 190.528 0.101562Z" fill="url(#paint0_linear_778_2)"/>
<path d="M71.3613 172.024H228.033V324.745C228.033 324.745 160.784 299.412 118.077 255.599C76.4458 212.891 71.3613 172.024 71.3613 172.024Z" fill="#E02100"/>
<path d="M63.7492 0.167969L228.053 171.357L100.971 323.412C100.971 323.412 4.45474 261.569 0.192781 171.357C-4.06918 81.1455 63.7492 0.167969 63.7492 0.167969Z" fill="#E2492F"/>
<defs>
<linearGradient id="paint0_linear_778_2" x1="125.207" y1="135.131" x2="347.385" y2="173.489" gradientUnits="userSpaceOnUse">
<stop stop-color="#FB7963"/>
<stop offset="1" stop-color="#E2492F"/>
</linearGradient>
</defs>
</svg>
